<svg width="809" height="618" viewBox="0 0 809 618" fill="none" xmlns="http://www.w3.org/2000/svg">
<g clip-path="url(#clip0_2_176)">
<path d="M631.755 57.6899H219.755C217.546 57.6899 215.755 59.4818 215.755 61.6922V613.998C215.755 616.208 217.546 618 219.755 618H631.755C633.964 618 635.755 616.208 635.755 613.998V61.6922C635.755 59.4818 633.964 57.6899 631.755 57.6899Z" fill="white"/>
<path d="M631.755 618H219.755C218.694 617.999 217.678 617.577 216.928 616.826C216.178 616.076 215.756 615.059 215.755 613.998V61.692C215.756 60.6309 216.178 59.6136 216.928 58.8633C217.678 58.113 218.694 57.691 219.755 57.6898H631.755C632.815 57.691 633.832 58.113 634.582 58.8633C635.332 59.6136 635.754 60.6309 635.755 61.692V613.998C635.754 615.059 635.332 616.076 634.582 616.826C633.832 617.577 632.815 617.999 631.755 618ZM219.755 59.6909C219.225 59.6914 218.716 59.9024 218.341 60.2776C217.966 60.6528 217.755 61.1614 217.755 61.692V613.998C217.755 614.528 217.966 615.037 218.341 615.412C218.716 615.787 219.225 615.998 219.755 615.999H631.755C632.285 615.998 632.794 615.787 633.168 615.412C633.543 615.037 633.754 614.528 633.755 613.998V61.692C633.754 61.1614 633.543 60.6528 633.168 60.2776C632.794 59.9024 632.285 59.6914 631.755 59.6909H219.755Z" fill="#CACACA"/>
<path d="M572.752 183.131H278.752C276.763 183.131 274.855 182.341 273.449 180.933C272.042 179.526 271.252 177.617 271.252 175.627C271.252 173.637 272.042 171.728 273.449 170.321C274.855 168.914 276.763 168.123 278.752 168.123H572.752C574.741 168.123 576.649 168.914 578.055 170.321C579.462 171.728 580.252 173.637 580.252 175.627C580.252 177.617 579.462 179.526 578.055 180.933C576.649 182.341 574.741 183.131 572.752 183.131Z" fill="#007CD8" fill-opacity="0.5"/>
<path d="M572.752 231.658H278.752C276.763 231.658 274.855 230.868 273.449 229.46C272.042 228.053 271.252 226.144 271.252 224.154C271.252 222.164 272.042 220.255 273.449 218.848C274.855 217.441 276.763 216.65 278.752 216.65H572.752C574.741 216.65 576.649 217.441 578.055 218.848C579.462 220.255 580.252 222.164 580.252 224.154C580.252 226.144 579.462 228.053 578.055 229.46C576.649 230.868 574.741 231.658 572.752 231.658Z" fill="#007CD8" fill-opacity="0.5"/>
<path d="M572.752 280.185H278.752C276.763 280.185 274.855 279.394 273.449 277.987C272.042 276.58 271.252 274.671 271.252 272.681C271.252 270.691 272.042 268.782 273.449 267.375C274.855 265.967 276.763 265.177 278.752 265.177H572.752C574.741 265.177 576.649 265.967 578.055 267.375C579.462 268.782 580.252 270.691 580.252 272.681C580.252 274.671 579.462 276.58 578.055 277.987C576.649 279.394 574.741 280.185 572.752 280.185Z" fill="#007CD8" fill-opacity="0.5"/>
<path d="M572.752 328.712H278.752C276.763 328.712 274.855 327.921 273.449 326.514C272.042 325.107 271.252 323.198 271.252 321.208C271.252 319.218 272.042 317.309 273.449 315.902C274.855 314.494 276.763 313.704 278.752 313.704H572.752C574.741 313.704 576.649 314.494 578.055 315.902C579.462 317.309 580.252 319.218 580.252 321.208C580.252 323.198 579.462 325.107 578.055 326.514C576.649 327.921 574.741 328.712 572.752 328.712Z" fill="#007CD8" fill-opacity="0.5"/>
<path d="M572.752 377.239H278.752C276.763 377.239 274.855 376.448 273.449 375.041C272.042 373.634 271.252 371.725 271.252 369.735C271.252 367.744 272.042 365.836 273.449 364.428C274.855 363.021 276.763 362.23 278.752 362.23H572.752C574.741 362.23 576.649 363.021 578.055 364.428C579.462 365.836 580.252 367.744 580.252 369.735C580.252 371.725 579.462 373.634 578.055 375.041C576.649 376.448 574.741 377.239 572.752 377.239Z" fill="#007CD8" fill-opacity="0.5"/>
<path d="M278.351 276.658C278.171 277.284 278.041 277.924 277.962 278.571L225.851 304.888L213.975 297.134L199.937 313.537L219.628 329.308C221.218 330.582 223.179 331.306 225.216 331.37C227.253 331.434 229.255 330.835 230.923 329.664L285.274 291.484C287.575 292.485 290.126 292.762 292.588 292.277C295.05 291.793 297.306 290.57 299.056 288.771C300.806 286.973 301.968 284.683 302.386 282.208C302.804 279.733 302.459 277.189 301.397 274.914C300.335 272.64 298.606 270.743 296.44 269.476C294.274 268.209 291.774 267.632 289.272 267.821C286.77 268.01 284.385 268.957 282.434 270.535C280.483 272.114 279.059 274.249 278.351 276.658Z" fill="#FFB6B6"/>
<path d="M224.143 305.882L206.868 326.318C206.376 326.9 205.765 327.368 205.076 327.692C204.388 328.016 203.637 328.188 202.876 328.195C202.115 328.203 201.361 328.046 200.666 327.736C199.971 327.425 199.351 326.969 198.848 326.397L181.228 306.366C178.268 303.833 176.432 300.229 176.124 296.344C175.816 292.459 177.06 288.61 179.584 285.642C182.108 282.674 185.705 280.828 189.587 280.51C193.47 280.192 197.319 281.428 200.292 283.946L222.889 297.955C223.536 298.357 224.089 298.893 224.51 299.527C224.931 300.161 225.211 300.879 225.33 301.631C225.449 302.384 225.404 303.153 225.199 303.886C224.995 304.619 224.634 305.3 224.143 305.882Z" fill="#00B15C"/>
<path d="M159.098 605.453H171.358L177.19 558.139H159.096L159.098 605.453Z" fill="#FFB6B6"/>
<path d="M155.97 601.448L180.115 601.447C184.195 601.447 188.11 603.069 190.995 605.956C193.881 608.843 195.502 612.759 195.502 616.842V617.342L155.971 617.344L155.97 601.448Z" fill="#2F2E41"/>
<path d="M156.336 473.694L159.822 485.454L206.817 477.596L201.671 460.24L156.336 473.694Z" fill="#FFB6B6"/>
<path d="M159.284 469.555L166.15 492.715C167.31 496.63 166.869 500.846 164.923 504.435C162.977 508.023 159.686 510.692 155.774 511.853L155.294 511.995L144.053 474.075L159.284 469.555Z" fill="#2F2E41"/>
<path d="M575.276 486.356H380.227C377.479 486.356 375.251 482.996 375.251 478.852C375.251 474.707 377.479 471.348 380.227 471.348H575.276C578.024 471.348 580.252 474.707 580.252 478.852C580.252 482.996 578.024 486.356 575.276 486.356Z" fill="#007CD8" fill-opacity="0.5"/>
<path d="M575.276 529.38H380.227C377.479 529.38 375.251 526.02 375.251 521.875C375.251 517.731 377.479 514.371 380.227 514.371H575.276C578.024 514.371 580.252 517.731 580.252 521.875C580.252 526.02 578.024 529.38 575.276 529.38Z" fill="#007CD8" fill-opacity="0.5"/>
<path d="M635.755 115.382C667.599 115.382 693.414 89.5527 693.414 57.6909C693.414 25.8291 667.599 0 635.755 0C603.911 0 578.096 25.8291 578.096 57.6909C578.096 89.5527 603.911 115.382 635.755 115.382Z" fill="#00B15C"/>
<path d="M611.731 53.8828C610.722 53.8828 609.754 54.2839 609.04 54.9979C608.327 55.7119 607.926 56.6802 607.926 57.6899C607.926 58.6996 608.327 59.668 609.04 60.382C609.754 61.096 610.722 61.4971 611.731 61.4971H631.951V81.7272C631.953 82.7353 632.355 83.7013 633.068 84.4133C633.782 85.1253 634.748 85.5251 635.755 85.5251C636.763 85.5251 637.729 85.1253 638.443 84.4133C639.156 83.7013 639.558 82.7353 639.56 81.7272V61.4971H659.78C660.789 61.4971 661.757 61.096 662.471 60.382C663.184 59.668 663.585 58.6996 663.585 57.6899C663.585 56.6802 663.184 55.7119 662.471 54.9979C661.757 54.2839 660.789 53.8828 659.78 53.8828H639.56V33.6516C639.56 32.6421 639.159 31.6738 638.446 30.96C637.732 30.2461 636.765 29.845 635.755 29.845C634.746 29.845 633.779 30.2461 633.065 30.96C632.352 31.6738 631.951 32.6421 631.951 33.6516V53.8828H611.731Z" fill="white"/>
<path d="M282.99 449.498C281.221 452.448 278.723 454.895 275.736 456.601C272.75 458.308 269.375 459.218 265.936 459.244L192.252 482.846L188.883 463.294L233.5 439.072L190.273 407.922L221.943 370.841L279.465 424.484C282.826 427.619 285.01 431.814 285.652 436.367C286.294 440.92 285.354 445.555 282.99 449.498Z" fill="#2F2E41"/>
<path d="M176.122 583.211H157.929C141.594 471.18 124.967 358.837 174.101 316.903L232.05 326.343L224.638 375.559L192.295 412.639L176.122 583.211Z" fill="#2F2E41"/>
<path d="M228.507 346.641C203.981 363.363 172.299 359.431 159.075 334.514C178.075 302.497 182.075 279.484 166.78 268.978C164.329 260.233 165.243 250.887 169.343 242.784C173.443 234.682 180.43 228.412 188.925 225.212L217.899 237.347C242.499 257.412 247.344 279.146 238.114 302.07L228.507 346.641Z" fill="#00B15C"/>
<path d="M667 615.999H117V618H667V615.999Z" fill="#CACACA"/>
<path d="M692.008 615.566C692.841 609.495 693.697 603.347 693.113 597.212C692.733 591.741 690.804 586.492 687.55 582.078C685.755 579.766 683.57 577.785 681.094 576.225C680.448 575.818 679.854 576.841 680.494 577.246C684.778 579.955 688.091 583.955 689.956 588.67C692.016 593.913 692.347 599.627 691.992 605.196C691.777 608.564 691.322 611.91 690.864 615.25C690.828 615.401 690.851 615.56 690.927 615.695C691.004 615.83 691.129 615.931 691.277 615.978C691.428 616.017 691.589 615.996 691.725 615.919C691.861 615.842 691.961 615.715 692.005 615.565L692.008 615.566Z" fill="#F2F2F2"/>
<path d="M137.97 366.399C139.5 366.043 140.933 365.356 142.169 364.387C143.405 363.417 144.413 362.188 145.123 360.786C145.833 359.384 146.227 357.844 146.277 356.274C146.327 354.703 146.033 353.14 145.415 351.696L185.017 262.174L162.362 256.465L130.558 346.257C128.202 347.458 126.367 349.481 125.403 351.944C124.438 354.407 124.409 357.139 125.323 359.622C126.237 362.104 128.029 364.166 130.36 365.415C132.69 366.664 135.398 367.014 137.97 366.399Z" fill="#FFB6B6"/>
<path d="M179.656 278.185L157.622 267.865C156.995 267.572 156.439 267.146 155.991 266.618C155.544 266.09 155.215 265.472 155.027 264.805C154.84 264.138 154.799 263.439 154.906 262.755C155.013 262.071 155.266 261.417 155.648 260.84L169.039 240.606C170.56 237.408 173.286 234.943 176.619 233.752C179.953 232.56 183.623 232.74 186.825 234.251C190.027 235.762 192.5 238.481 193.701 241.813C194.903 245.145 194.736 248.817 193.237 252.026L186.312 275.201C186.114 275.865 185.775 276.478 185.318 276.999C184.862 277.519 184.299 277.935 183.667 278.218C183.035 278.501 182.35 278.645 181.658 278.639C180.965 278.633 180.283 278.478 179.656 278.185Z" fill="#00B15C"/>
<path d="M228.53 218.62H170.53C169.336 218.619 168.193 218.144 167.349 217.3C166.505 216.456 166.031 215.311 166.03 214.118V189.104C166.03 180.214 169.559 171.689 175.841 165.403C182.124 159.117 190.645 155.585 199.53 155.585C208.414 155.585 216.935 159.117 223.218 165.403C229.5 171.689 233.03 180.214 233.03 189.104V214.118C233.028 215.311 232.554 216.456 231.71 217.3C230.866 218.144 229.723 218.619 228.53 218.62Z" fill="#2F2E41"/>
<path d="M207.797 218.24C221.362 218.24 232.358 207.238 232.358 193.665C232.358 180.093 221.362 169.091 207.797 169.091C194.233 169.091 183.236 180.093 183.236 193.665C183.236 207.238 194.233 218.24 207.797 218.24Z" fill="#FFB6B6"/>
<path d="M240.955 191.605H205.489L205.125 186.511L203.307 191.605H197.846L197.125 181.508L193.521 191.605H182.955V191.105C182.963 184.075 185.757 177.336 190.725 172.365C195.693 167.394 202.429 164.598 209.455 164.59H214.455C221.481 164.598 228.216 167.394 233.184 172.365C238.152 177.336 240.947 184.075 240.955 191.105V191.605Z" fill="#2F2E41"/>
</g>
<defs>
<clipPath id="clip0_2_176">
<rect width="809" height="618" fill="white"/>
</clipPath>
</defs>
</svg>
