<svg width="1080" height="753" viewBox="0 0 1080 753" fill="none" xmlns="http://www.w3.org/2000/svg">
<path d="M316.029 669.828L332.734 670.224L326.424 721.101L315.104 720.833L316.029 669.828Z" fill="#FFB6B6"/>
<path d="M353.942 744.46C353.942 743.078 353.223 741.829 352.114 741.28L339.646 735.119L331.146 715.397L331.017 695.528L313.501 693.467L310.968 706.125C310.968 706.125 316.184 705.346 309.744 710.939C303.305 716.532 306.406 727.473 306.406 727.473L305.001 747.924H316.592L317.215 735.205C326.23 739.032 328.441 747.924 328.441 747.924H350.911C352.585 747.924 353.942 746.373 353.942 744.46Z" fill="#021A5A"/>
<path d="M340.499 670.388L357.205 670.784L350.895 721.661L339.574 721.393L340.499 670.388Z" fill="#FFB6B6"/>
<path d="M378.412 745.02C378.412 743.638 377.694 742.389 376.584 741.84L364.116 735.679L355.616 715.957L355.487 696.088L337.972 694.027L335.439 706.685C335.439 706.685 340.654 705.906 334.215 711.499C327.775 717.092 330.876 728.033 330.876 728.033L329.472 748.484H341.063L341.685 735.765C350.7 739.592 352.912 748.484 352.912 748.484H375.381C377.055 748.484 378.412 746.933 378.412 745.02Z" fill="#021A5A"/>
<path d="M321.341 371.965L302.403 417.203C296.09 432.283 294.089 448.821 296.624 464.972L305.828 687.21H342.22L358.105 489.306L361.24 567.481L324.808 678.861H360.64L406.632 567.481L410.042 481.717L393.702 415.165L321.341 371.965Z" fill="#021A5A"/>
<path d="M834.408 178.395V65.3989C834.408 29.2801 805.14 9.11969e-09 769.035 9.11969e-09H529.726C493.622 -0.000596677 464.353 29.279 464.352 65.3978V685.305C464.352 721.424 493.621 750.704 529.725 750.704H769.032C805.137 750.704 834.405 721.424 834.405 685.305V258.828C836.679 258.828 838.523 256.984 838.523 254.709L838.526 182.515C838.526 180.24 836.683 178.395 834.408 178.395Z" fill="#3F3D56"/>
<path d="M822.132 59.9612V688.626C783.927 686.279 803.36 736.637 772.568 738.22H528.35C500.965 738.224 478.761 716.021 478.753 688.626V59.9612C478.761 32.567 500.964 10.3648 528.348 10.3683H546.358C541.454 22.4348 581.038 26.3605 584.073 26.3644H709.149C722.169 26.3479 753.583 13.1805 752.44 10.3683H772.559C799.932 10.373 822.122 32.568 822.132 59.9517V59.9612Z" fill="white"/>
<path d="M462.428 192.236C460.686 192.236 459.27 193.653 459.27 195.395V220.669C459.27 222.411 460.686 223.828 462.428 223.828C464.169 223.828 465.586 222.411 465.586 220.669V195.395C465.586 193.653 464.169 192.236 462.428 192.236Z" fill="#3F3D56"/>
<path d="M462.428 268.056C460.686 268.056 459.27 269.473 459.27 271.216V320.183C459.27 321.925 460.686 323.342 462.428 323.342C464.169 323.342 465.586 321.925 465.586 320.183V271.216C465.586 269.473 464.169 268.056 462.428 268.056Z" fill="#3F3D56"/>
<path d="M462.428 337.558C460.686 337.558 459.27 338.975 459.27 340.718V389.685C459.27 391.427 460.686 392.844 462.428 392.844C464.169 392.844 465.586 391.427 465.586 389.685V340.718C465.586 338.975 464.169 337.558 462.428 337.558Z" fill="#3F3D56"/>
<path d="M739.277 255.548H558.52C546.131 255.534 536.09 245.489 536.076 233.095V155.367C536.09 142.972 546.131 132.928 558.52 132.914C616.199 116.927 676.691 118.425 739.277 132.914C751.666 132.928 761.706 142.972 761.72 155.367V233.095C761.706 245.489 751.666 255.533 739.277 255.548Z" fill="#F2F2F2"/>
<path d="M757.692 337.009H540.107C537.882 337.007 536.079 335.204 536.077 332.979V278.985C536.08 276.76 537.883 274.957 540.107 274.954H757.692C759.916 274.957 761.718 276.76 761.721 278.985V332.98C761.718 335.205 759.916 337.008 757.692 337.011V337.009ZM540.107 276.566C538.772 276.568 537.69 277.65 537.689 278.985V332.98C537.69 334.315 538.772 335.397 540.107 335.398H757.692C759.026 335.397 760.108 334.315 760.109 332.98V278.985C760.108 277.65 759.026 276.568 757.692 276.566H540.107Z" fill="#007CD8" fill-opacity="0.5"/>
<path d="M607.396 294.69C605.839 294.723 604.602 296.013 604.635 297.572C604.667 299.084 605.885 300.302 607.396 300.334H740.364C741.921 300.393 743.232 299.179 743.291 297.621C743.351 296.064 742.137 294.753 740.58 294.693H607.396V294.69Z" fill="#007CD8" fill-opacity="0.5"/>
<path d="M607.396 311.625C605.839 311.658 604.602 312.948 604.635 314.506C604.667 316.018 605.885 317.236 607.396 317.268H740.364C741.921 317.328 743.232 316.113 743.291 314.556C743.351 312.998 742.137 311.687 740.58 311.627H607.396V311.625Z" fill="#007CD8" fill-opacity="0.5"/>
<path d="M570.045 317.271C576.276 317.271 581.328 312.217 581.328 305.983C581.328 299.749 576.276 294.695 570.045 294.695C563.813 294.695 558.761 299.749 558.761 305.983C558.761 312.217 563.813 317.271 570.045 317.271Z" fill="#007CD8" fill-opacity="0.5"/>
<path d="M757.692 602.035H540.107C537.882 602.032 536.079 600.229 536.077 598.004V544.01C536.08 541.785 537.883 539.982 540.107 539.979H757.692C759.916 539.982 761.718 541.785 761.721 544.01V598.005C761.718 600.23 759.916 602.033 757.692 602.036V602.035ZM540.107 541.592C538.772 541.593 537.69 542.675 537.689 544.01V598.005C537.69 599.34 538.772 600.422 540.107 600.424L732.975 598.522C734.309 598.521 754.547 590.97 754.548 589.635L760.109 544.01C760.108 542.675 759.026 541.593 757.692 541.592H540.107Z" fill="#007CD8" fill-opacity="0.5"/>
<path d="M607.396 567.764C605.839 567.732 604.549 568.968 604.516 570.526C604.483 572.085 605.719 573.375 607.277 573.408C607.317 573.408 607.357 573.408 607.396 573.408H740.364C741.921 573.467 743.232 572.253 743.291 570.695C743.351 569.138 742.137 567.827 740.58 567.767H607.396V567.764Z" fill="#007CD8" fill-opacity="0.5"/>
<path d="M570.045 582.296C576.276 582.296 581.328 577.242 581.328 571.008C581.328 564.774 576.276 559.721 570.045 559.721C563.813 559.721 558.761 564.774 558.761 571.008C558.761 577.242 563.813 582.296 570.045 582.296Z" fill="#007CD8" fill-opacity="0.5"/>
<path d="M757.692 490.315H540.107C537.882 490.312 536.079 488.509 536.077 486.284V432.29C536.08 430.065 537.883 428.262 540.107 428.259H757.692C759.916 428.262 761.718 430.065 761.721 432.29V486.285C761.718 488.51 759.916 490.313 757.692 490.316V490.315ZM540.107 429.872C538.772 429.873 537.69 430.955 537.689 432.29V486.285C537.69 487.62 538.772 488.702 540.107 488.704L732.975 486.802C734.309 486.801 754.547 479.25 754.548 477.915L760.109 432.29C760.108 430.955 759.026 429.873 757.692 429.872H540.107Z" fill="#007CD8" fill-opacity="0.5"/>
<path d="M607.396 456.044C605.839 456.012 604.549 457.248 604.516 458.806C604.483 460.365 605.719 461.655 607.277 461.688C607.317 461.688 607.357 461.688 607.396 461.688H740.364C741.921 461.747 743.232 460.533 743.291 458.975C743.351 457.418 742.137 456.107 740.58 456.047H607.396V456.044Z" fill="#007CD8" fill-opacity="0.5"/>
<path d="M570.045 470.576C576.276 470.576 581.328 465.522 581.328 459.288C581.328 453.054 576.276 448.001 570.045 448.001C563.813 448.001 558.761 453.054 558.761 459.288C558.761 465.522 563.813 470.576 570.045 470.576Z" fill="#007CD8" fill-opacity="0.5"/>
<path d="M563.862 204.849C570.464 207.042 577.385 209.262 584.431 208.887C587.638 208.716 590.723 207.952 593.632 206.591C596.616 205.195 599.342 203.3 602.362 201.977C613.46 197.118 624.467 205.42 634.817 208.535C639.981 210.09 645.412 210.462 650.463 208.297C656.044 205.905 660.254 201.339 664.849 197.528C675.152 188.982 688.594 184.375 701.966 184.723C716.634 185.105 730.832 191.587 740.934 202.188C741.78 203.077 743.125 201.729 742.28 200.842C733.452 191.576 721.557 185.33 708.89 183.437C696.195 181.54 683.017 184.075 671.855 190.399C666.207 193.599 661.677 197.98 656.701 202.068C651.856 206.049 646.469 208.615 640.081 207.768C629.076 206.311 619.609 197.827 608.196 198.596C600.906 199.088 595.699 204.574 588.84 206.324C580.657 208.41 572.103 205.582 564.368 203.013C563.203 202.626 562.703 204.464 563.862 204.849Z" fill="#3F3D56"/>
<path d="M584.524 214.996C588.418 214.996 591.575 211.838 591.575 207.942C591.575 204.047 588.418 200.889 584.524 200.889C580.63 200.889 577.474 204.047 577.474 207.942C577.474 211.838 580.63 214.996 584.524 214.996Z" fill="#00B15C"/>
<path d="M645.393 215.308C649.287 215.308 652.444 212.15 652.444 208.255C652.444 204.359 649.287 201.201 645.393 201.201C641.499 201.201 638.342 204.359 638.342 208.255C638.342 212.15 641.499 215.308 645.393 215.308Z" fill="#00B15C"/>
<path d="M707.208 191.381C711.102 191.381 714.259 188.223 714.259 184.328C714.259 180.432 711.102 177.274 707.208 177.274C703.314 177.274 700.157 180.432 700.157 184.328C700.157 188.223 703.314 191.381 707.208 191.381Z" fill="#00B15C"/>
<path d="M298.08 429.042C277.234 488.421 303.795 535.202 298.283 505.025C293.676 479.805 372.17 403.061 395.797 418.886C395.302 416.325 380.284 370.151 378.812 369.938C380.872 364.749 378.001 364.7 377.884 362.041C377.438 351.773 379.823 341.114 384.471 330.144C387.516 321.669 387.57 314.387 384.618 308.515C382.078 303.689 377.811 300 372.67 298.185L357.188 279.479C353.155 274.61 347.207 264.105 340.887 264.144L306.961 262.932C305.992 262.349 294.079 272.597 282.48 277.626C269.9 283.085 272.495 297.984 272.527 298.175L272.556 298.352L272.695 298.479L291.186 352.927L307.893 368.591C307.046 371.046 307.258 372.89 308.843 373.947C306.568 375.631 296.446 426.008 298.08 427.772L298.08 429.042Z" fill="#00B15C"/>
<path d="M472.402 321.284C469.879 322.291 467.634 323.888 465.855 325.941L438.989 335.154L443.746 347.814L470.486 337.105C473.195 337.295 475.911 336.832 478.406 335.757C484.684 333.15 488.431 327.798 486.771 323.802C485.111 319.805 478.68 318.678 472.402 321.284Z" fill="#FFB6B6"/>
<path d="M329.09 280.655L390.378 363.416L462.22 343.624L459.097 324.876L404.391 335.241L373.872 288.304C363.906 269.032 344.264 265.151 329.09 280.653V280.655Z" fill="#00B15C"/>
<path d="M889.6 749.323H191.626V751.46H889.6V749.323Z" fill="#007CD8" fill-opacity="0.5"/>
<path d="M348.791 255.886L299.731 260.355L298.283 209.344L351.73 207.826L348.791 255.886Z" fill="#021A5A"/>
<path d="M323.982 249.039C338.202 249.039 349.729 237.507 349.729 223.282C349.729 209.057 338.202 197.525 323.982 197.525C309.763 197.525 298.235 209.057 298.235 223.282C298.235 237.507 309.763 249.039 323.982 249.039Z" fill="#FFB6B6"/>
<path d="M344.694 198.185C344.512 191.794 336.563 191.102 330.369 189.524L324.753 186.608C319.24 185.204 313.391 186.192 308.644 189.328L293.668 198.404C286.944 202.846 285.876 210.026 283.141 217.609L278.192 228.71C275.5 236.175 279.057 246.066 281.778 253.52L282.919 256.644L281.136 266.867L312.345 265.408L315.119 249.627L309.792 243.636C307.901 241.511 307.748 238.354 309.423 236.055C315.45 227.786 314.333 216.196 314.333 216.196L321.959 220.358C326.97 221.042 331.436 220.967 335.365 220.146C339.686 219.242 343.358 217.436 346.393 214.743L349.112 223.892C349.813 235.279 347.686 238.301 337.541 249.439L355.332 260.613L354.674 254.566C353.108 240.182 357.88 228.839 357.211 217.132C356.749 209.037 351.936 201.825 344.694 198.185Z" fill="#021A5A"/>
<path d="M348.955 415.37C346.442 414.341 343.718 413.928 341.013 414.168L315.293 402.117L309.92 414.528L336.588 425.415C338.405 427.435 340.679 428.991 343.22 429.951C349.545 432.441 355.958 431.197 357.54 427.169C359.122 423.141 355.28 417.86 348.955 415.37Z" fill="#FFB6B6"/>
<path d="M274.117 286.528L260.705 388.65L326.116 424.358L336.893 408.704L290.352 378.129L301.008 323.159C307.227 302.373 295.798 285.928 274.118 286.528L274.117 286.528Z" fill="#00B15C"/>
</svg>
